<svg xmlns="http://www.w3.org/2000/svg" viewBox="0 0 552.37 182.66"><defs><style>.cls-1{fill:#eb4a4d;}.cls-2{fill:#5796d1;}</style></defs><title>IMRAD Logo</title><g id="_" data-name="?"><path class="cls-1" d="M541.36,181s8.61,4.71,3.72,10.39C539.68,197.63,527,194,527,194a25.61,25.61,0,0,0-12.71-.24c-5.14,1.36-10.2.15-10.5-3.3s1.66-5.79,8.43-6.17c13-.73,16.48-3.24,25.83-9.21C539.81,173.89,544.05,176.44,541.36,181Z" transform="translate(-27.61 -14.56)"/><path class="cls-2" d="M518.93,151.86a11.49,11.49,0,0,1,8.73,3.67c3.84,4.1,3.4,7.85,3.4,7.85A3.19,3.19,0,0,1,535,165.3c2.73,6.43-15.27,13.15-24.35,12.57-4.8-.3-4.95-4.42,1.83-7.5,0,0-2.88-4.5,4.54-9.52a3,3,0,0,1,.79-4.1C519.82,155.29,519.93,153,518.93,151.86Z" transform="translate(-27.61 -14.56)"/><path class="cls-1" d="M564.71,66.36A22.62,22.62,0,0,1,571,77.12c1.87,7-.51,9.85-2.07,12.43s-8,8.18-16.25,13.56-9.56,5.4-17.29,11.44-13.72,13.26-14.7,27.69c0,0-9.3-4.74-5.2-20.28,4.16-15.73,19.16-24.11,26.14-28.34C553.43,86.47,560.37,80.84,564.71,66.36Z" transform="translate(-27.61 -14.56)"/><path class="cls-2" d="M546.93,54.53s8.75,2.78,12.37,6.9c0,0-4,18.32-24.28,29.35-25.35,13.79-25.7,34.12-25.7,34.12s-3.1-3.18-2.86-15.71,10.9-24,18.09-28.72S540.43,69.19,546.93,54.53Z" transform="translate(-27.61 -14.56)"/><path class="cls-1" d="M475.36,51S519.79,13.18,564,42.26c6.29,4.47,21.92,15.85,13.63,34.86,0,0-1.25-8.52-12.33-18.79s-40-21.65-72.36-1.32C492.92,57,479,66.23,475.36,51Z" transform="translate(-27.61 -14.56)"/><path class="cls-2" d="M470,32.72a83.42,83.42,0,0,1,27.74-14.3,92.16,92.16,0,0,1,41.74-2.59c11.11,1.71,20.73,5.69,26.61,10.37,6.69,5.31,10.18,16,9.8,18.62,0,0-18.26-19.95-49.63-19.2-14.81.35-32.55,5.33-52.67,19.2C470,33.35,470,32.72,470,32.72Z" transform="translate(-27.61 -14.56)"/></g><g id="Text"><path class="cls-1" d="M86.26,115.09Q99,124.57,99,149.87q0,24.9-12.38,35T54.45,195H27.61V105.61H52.52Q73.55,105.61,86.26,115.09ZM48.78,121v58.71h7q10.44,0,15.87-6.51T77,149.87q0-11.49-2.71-17.81T67,123.35A25,25,0,0,0,55.49,121Z" transform="translate(-27.61 -14.56)"/><path class="cls-1" d="M129.56,105.61V195H108.39V105.61Z" transform="translate(-27.61 -14.56)"/><path class="cls-1" d="M199.37,113q9.8,7.35,9.8,21.81,0,15.09-9.61,22.77t-25.74,7.68h-9.68V195H143V105.61h28.9Q189.57,105.61,199.37,113Zm-15.94,33.49q3.93-3.55,3.94-11.68,0-14.07-15.75-14.07h-7.48V150H172Q179.5,150,183.43,146.45Z" transform="translate(-27.61 -14.56)"/><path class="cls-1" d="M266,106.25a40.12,40.12,0,0,1,13.48,8.65l-9.81,11.48q-9.17-7.48-19.61-7.48-5.55,0-8.78,2.26a7.44,7.44,0,0,0-3.22,6.51,7.77,7.77,0,0,0,1.42,4.84,13.18,13.18,0,0,0,5,3.55,100.83,100.83,0,0,0,10.84,4q13.68,4.4,20.13,10.77T282,169a26,26,0,0,1-4.26,14.78,27.83,27.83,0,0,1-12.26,9.94,46.56,46.56,0,0,1-19,3.54A50.72,50.72,0,0,1,227,193.74a46.14,46.14,0,0,1-14.51-9.29l10.71-11.74a38.79,38.79,0,0,0,10.64,6.58,31.93,31.93,0,0,0,11.94,2.19q6.59,0,10.39-2.9a9.61,9.61,0,0,0,3.81-8.07,10.43,10.43,0,0,0-1.42-5.61,12.43,12.43,0,0,0-4.91-4.07A66.56,66.56,0,0,0,243.63,157q-14.85-4.52-21.1-11.09t-6.26-16.65a23.07,23.07,0,0,1,4.13-13.61,26.35,26.35,0,0,1,11.48-9,42,42,0,0,1,16.65-3.16A49,49,0,0,1,266,106.25Z" transform="translate(-27.61 -14.56)"/><path class="cls-1" d="M338.34,195V156.71H311.5V195H290.34V105.61H311.5v34.58h26.84V105.61H359.5V195Z" transform="translate(-27.61 -14.56)"/><path class="cls-1" d="M394.22,105.61V195H373.05V105.61Z" transform="translate(-27.61 -14.56)"/><path class="cls-1" d="M468.8,105.61l-2.06,16.25H444.67V195H423.51V121.86h-23.1V105.61Z" transform="translate(-27.61 -14.56)"/><path class="cls-2" d="M42.24,32.71V94.49H27.61V32.71Z" transform="translate(-27.61 -14.56)"/><path class="cls-2" d="M83.47,33.16a27.71,27.71,0,0,1,9.32,6L86,47.06a21.09,21.09,0,0,0-13.55-5.17,10.38,10.38,0,0,0-6.06,1.56A5.15,5.15,0,0,0,64.17,48a5.34,5.34,0,0,0,1,3.34,9.12,9.12,0,0,0,3.47,2.45,68.71,68.71,0,0,0,7.49,2.76Q85.56,59.56,90,64t4.46,12.53a18,18,0,0,1-2.94,10.2,19.24,19.24,0,0,1-8.47,6.87A32.25,32.25,0,0,1,70,96,34.92,34.92,0,0,1,56.54,93.6a31.84,31.84,0,0,1-10-6.42l7.4-8.11a26.75,26.75,0,0,0,7.36,4.55,22,22,0,0,0,8.25,1.51,11.52,11.52,0,0,0,7.17-2,6.6,6.6,0,0,0,2.63-5.57,7.1,7.1,0,0,0-1-3.88A8.41,8.41,0,0,0,75,70.87a46.2,46.2,0,0,0-7-2.68q-10.24-3.12-14.58-7.66A16,16,0,0,1,49.1,49,16,16,0,0,1,52,39.62a18.27,18.27,0,0,1,7.94-6.24,28.8,28.8,0,0,1,11.5-2.18A33.73,33.73,0,0,1,83.47,33.16Z" transform="translate(-27.61 -14.56)"/><path class="cls-2" d="M180.51,94.49H166.16l-1.07-24.16q-.45-8.64-.45-15.42,0-5.17.27-9.81L155.37,88H141.55L131.39,45.1q.54,7.76.53,14.62,0,5.18-.26,10.79l-1.07,24H116.32L121,32.71h18.45l9.27,41.9,8.65-41.9h18.55Z" transform="translate(-27.61 -14.56)"/><path class="cls-2" d="M234.81,32.71,215,71.31V94.49H200.39V71.4L180.6,32.71h16L208,59.9l11.41-27.19Z" transform="translate(-27.61 -14.56)"/><path class="cls-2" d="M275.19,70.87h-5.7V94.49H254.87V32.71H275.1q12.66,0,19,4.64t6.37,14.17a16.58,16.58,0,0,1-2.85,9.94q-2.85,4-9,6.73l15.69,26.3h-16.5Zm-5.7-10.08h6.15q4.91,0,7.35-2.22t2.46-7q0-4.46-2.63-6.51c-1.76-1.36-4.45-2-8.07-2h-5.26Z" transform="translate(-27.61 -14.56)"/><path class="cls-2" d="M345.54,32.71,344,43.14H322.27v14.8h19V68.19h-19V84h23.27V94.49h-37.9V32.71Z" transform="translate(-27.61 -14.56)"/><path class="cls-2" d="M391.27,37.79q6.78,5.09,6.78,15.07,0,10.43-6.65,15.74t-17.78,5.3h-6.69V94.49H352.31V32.71h20Q384.49,32.71,391.27,37.79Zm-11,23.14Q383,58.47,383,52.86q0-9.72-10.88-9.72h-5.17V63.38h5.44Q377.54,63.38,380.26,60.93Z" transform="translate(-27.61 -14.56)"/><path class="cls-2" d="M453.23,94.49,450,81.21H432l-3.12,13.28H413.74l18.63-61.78h17.74l18.64,61.78ZM434.51,70.6h13L441,43.32Z" transform="translate(-27.61 -14.56)"/></g></svg>